<?xml version="1.0" encoding="utf-8"?>
<!-- Generator: Adobe Illustrator 16.0.1, SVG Export Plug-In . SVG Version: 6.00 Build 0)  -->
<!DOCTYPE svg PUBLIC "-//W3C//DTD SVG 1.1//EN" "http://www.w3.org/Graphics/SVG/1.1/DTD/svg11.dtd">
<svg version="1.1" id="Слой_1" xmlns="http://www.w3.org/2000/svg" xmlns:xlink="http://www.w3.org/1999/xlink" x="0px" y="0px"
	 width="200px" height="60px" viewBox="0 0 200 60" enable-background="new 0 0 200 60" xml:space="preserve">
<path fill="none" d="M37.347,31.041c1.829-1.476,2.743-3.71,2.743-6.704c0-2.695-0.882-4.759-2.646-6.191s-4.229-2.149-7.394-2.149
	H24.21v17.259h5.325C32.915,33.255,35.518,32.517,37.347,31.041z"/>
<path fill="none" d="M29.292,5C15.897,5,5,15.896,5,29.291c5.616,0,10.022,0.798,13.5,2.093V11.249h11.805
	c2.074,0,4.063,0.23,5.967,0.69c1.903,0.46,3.577,1.203,5.021,2.229c1.443,1.026,2.593,2.353,3.448,3.978
	c0.855,1.625,1.283,3.604,1.283,5.935c0,1.711-0.321,3.405-0.962,5.084s-1.636,3.182-2.983,4.508
	c-1.347,1.325-3.069,2.4-5.165,3.224c-2.096,0.823-4.598,1.235-7.506,1.235h-1.716c4.905,6.932,3.108,15.407,3.477,15.38
	c12.568-0.96,22.415-11.599,22.415-24.22C53.583,15.896,42.686,5,29.292,5z"/>
<path fill="#255017" stroke="#95C636" stroke-width="0.5" stroke-miterlimit="10" d="M36.914,36.896
	c2.096-0.823,3.817-1.898,5.165-3.224c1.348-1.326,2.342-2.829,2.983-4.508s0.962-3.373,0.962-5.084c0-2.331-0.428-4.31-1.283-5.935
	c-0.855-1.625-2.005-2.951-3.448-3.978c-1.444-1.026-3.117-1.77-5.021-2.229c-1.904-0.46-3.893-0.69-5.967-0.69H18.5v20.135
	c4.397,1.637,7.299,4.073,9.191,6.747h1.716C32.315,38.131,34.817,37.719,36.914,36.896z M24.21,33.255V15.996h5.838
	c3.165,0,5.63,0.717,7.394,2.149s2.646,3.496,2.646,6.191c0,2.994-0.914,5.229-2.743,6.704s-4.432,2.214-7.811,2.214H24.21z"/>
<path fill="#95C636" d="M29.292,1C13.691,1,1,13.691,1,29.291s12.691,28.291,28.292,28.291c0.721,0,1.455-0.028,2.181-0.083
	c14.642-1.118,26.111-13.508,26.111-28.208C57.583,13.691,44.892,1,29.292,1z M31.168,53.511c-0.369,0.027,1.428-8.448-3.477-15.38
	H24.21v15.044H18.5V31.384c-3.478-1.295-7.884-2.093-13.5-2.093C5,15.896,15.897,5,29.292,5s24.292,10.896,24.292,24.291
	C53.583,41.912,43.737,52.551,31.168,53.511z"/>
<g>
	<path fill="#255017" d="M18.75,52.925V31.746c3.593,1.396,6.433,3.458,8.449,6.135H23.96v15.044H18.75z"/>
	<path fill="#95C636" d="M19,32.114c3.209,1.303,5.789,3.154,7.688,5.517H24.21h-0.5v0.5v14.544H19V32.114 M18.5,31.384v21.791h5.71
		V38.131h3.481C25.799,35.457,22.898,33.021,18.5,31.384L18.5,31.384z"/>
</g>
<path d="M63.525,15.306h9.693c2.944,0,4.974,0.207,6.088,0.619c1.396,0.49,2.548,1.328,3.457,2.514
	c0.909,1.186,1.363,2.694,1.363,4.525c0,1.56-0.347,2.907-1.038,4.041c-0.833,1.366-1.846,2.337-3.036,2.91
	c-1.191,0.573-3.065,0.86-5.623,0.86h-4.488v6.922c0,1.032,0.053,1.683,0.158,1.953c0.141,0.374,0.334,0.636,0.58,0.783
	c0.246,0.148,0.744,0.223,1.494,0.223h0.844v1.624h-9.492v-1.624h0.58c0.809,0,1.359-0.074,1.652-0.223
	c0.293-0.147,0.507-0.38,0.642-0.696c0.135-0.315,0.202-0.911,0.202-1.788V19.501c0-0.857-0.062-1.432-0.185-1.724
	c-0.123-0.292-0.328-0.506-0.615-0.643c-0.287-0.136-0.853-0.205-1.696-0.205h-0.58V15.306z M69.941,17.413v11.312h3.785
	c1.914,0,3.255-0.187,4.023-0.561c0.77-0.374,1.406-1.021,1.911-1.943c0.505-0.921,0.757-2.001,0.757-3.238
	c0-1.354-0.294-2.485-0.881-3.394c-0.587-0.909-1.385-1.524-2.395-1.846c-0.704-0.219-2.077-0.329-4.12-0.329H69.941z"/>
<path d="M98.971,14.842c2.24,0,4.263,0.593,6.07,1.779c1.957,1.276,3.461,2.933,4.512,4.969c1.049,2.037,1.574,4.396,1.574,7.077
	c0,4.15-1.174,7.534-3.52,10.151c-2.344,2.617-5.334,3.925-8.97,3.925c-4.058,0-7.271-1.572-9.64-4.718
	c-1.935-2.565-2.902-5.633-2.902-9.204c0-2.655,0.545-5.037,1.636-7.145s2.639-3.773,4.644-4.998
	C94.38,15.454,96.58,14.842,98.971,14.842z M98.963,16.93c-1.832,0-3.406,0.461-4.721,1.383c-1.315,0.922-2.369,2.278-3.162,4.07
	c-0.792,1.792-1.188,4.002-1.188,6.632c0,2.514,0.391,4.645,1.171,6.391c0.781,1.747,1.829,3.084,3.145,4.013
	c1.314,0.928,2.794,1.392,4.438,1.392c1.632,0,3.077-0.454,4.333-1.363c1.256-0.908,2.297-2.34,3.117-4.292
	c0.822-1.953,1.234-4.122,1.234-6.507c0-2.423-0.412-4.641-1.234-6.651c-0.703-1.728-1.637-3.003-2.799-3.829
	C102.133,17.343,100.689,16.93,98.963,16.93z"/>
<path d="M114.678,15.306h9.51v1.624h-0.879c-0.68,0-1.16,0.072-1.441,0.215s-0.486,0.351-0.615,0.624s-0.193,0.76-0.193,1.462
	v18.814c0,0.863,0.029,1.379,0.088,1.547c0.07,0.231,0.223,0.399,0.457,0.503c0.164,0.077,0.639,0.115,1.424,0.115h1.318
	c1.512,0,2.824-0.241,3.938-0.725s2.074-1.186,2.883-2.107s1.588-2.298,2.338-4.129l1.564,0.58l-2.742,8.45h-17.648v-1.624h0.773
	c0.75,0,1.254-0.071,1.512-0.213s0.457-0.377,0.598-0.706c0.141-0.328,0.211-0.893,0.211-1.691v-18.35
	c0-0.935-0.064-1.561-0.193-1.879c-0.129-0.318-0.316-0.545-0.563-0.682s-0.768-0.205-1.564-0.205h-0.773V15.306z"/>
<path d="M136.053,15.306h9.387v1.624h-0.721c-0.68,0-1.172,0.104-1.477,0.312s-0.527,0.502-0.668,0.885s-0.211,1.125-0.211,2.227
	v17.383c0,0.877,0.076,1.498,0.229,1.866c0.152,0.367,0.365,0.635,0.641,0.802c0.275,0.168,0.771,0.252,1.486,0.252h0.721v1.624
	h-9.387v-1.624h0.773c0.691,0,1.18-0.087,1.467-0.262c0.287-0.174,0.496-0.425,0.625-0.754c0.129-0.328,0.193-0.963,0.193-1.904
	V19.946c0-0.999-0.064-1.67-0.193-2.014s-0.338-0.597-0.625-0.759c-0.287-0.162-0.775-0.243-1.467-0.243h-0.773V15.306z"/>
<path d="M165.076,15.306h1.268l1.877,8.314l-1.635,0.541c-1.031-2.333-2.4-4.169-4.109-5.51c-1.404-1.122-2.961-1.682-4.67-1.682
	c-1.029,0-1.953,0.203-2.773,0.608c-0.818,0.406-1.434,0.93-1.844,1.573c-0.408,0.644-0.613,1.3-0.613,1.969
	c0,0.605,0.158,1.19,0.475,1.756c0.316,0.566,0.797,1.065,1.441,1.496c0.646,0.432,1.701,0.885,3.168,1.361l4.586,1.493
	c0.563,0.181,1.379,0.528,2.451,1.045c1.072,0.516,1.906,1.061,2.504,1.635s1.066,1.277,1.406,2.109s0.51,1.731,0.51,2.699
	c0,2.141-0.854,4.015-2.559,5.621c-1.705,1.605-3.91,2.408-6.617,2.408c-1.395,0-2.643-0.222-3.744-0.667
	c-1.102-0.444-2.291-1.234-3.568-2.368l-0.809,2.571h-1.234l-1.631-9.688l1.635-0.367c0.598,1.792,1.391,3.313,2.381,4.563
	s2.086,2.194,3.287,2.832c1.201,0.639,2.424,0.958,3.666,0.958c1.688,0,3.164-0.562,4.43-1.683c1.055-0.94,1.582-2.05,1.582-3.326
	c0-1.173-0.381-2.133-1.143-2.881c-0.773-0.747-2.156-1.443-4.148-2.088l-4.395-1.393c-2.461-0.786-4.195-1.791-5.203-3.017
	c-1.008-1.224-1.512-2.629-1.512-4.215c0-1.237,0.328-2.381,0.984-3.432c0.656-1.05,1.664-1.93,3.023-2.639s2.848-1.063,4.465-1.063
	c1.359,0,2.66,0.258,3.902,0.773c0.879,0.361,1.688,0.876,2.426,1.547L165.076,15.306z"/>
<path d="M172.334,15.306h9.457v1.624h-0.65c-0.75,0-1.287,0.078-1.609,0.234s-0.547,0.428-0.676,0.818
	c-0.105,0.285-0.158,0.889-0.158,1.81v7.522h12.709v-7.329c0-0.999-0.029-1.602-0.088-1.81c-0.094-0.415-0.297-0.727-0.607-0.934
	s-0.781-0.312-1.414-0.312h-0.967v-1.624h9.387v1.624h-0.844c-0.656,0-1.123,0.082-1.398,0.244c-0.275,0.163-0.469,0.383-0.58,0.662
	c-0.111,0.279-0.166,0.88-0.166,1.801v18.369c0,1.019,0.059,1.666,0.176,1.943s0.352,0.474,0.703,0.59
	c0.211,0.077,0.914,0.116,2.109,0.116v1.624h-9.387v-1.624h0.686c0.867,0,1.443-0.063,1.73-0.192
	c0.287-0.128,0.473-0.333,0.555-0.614c0.07-0.218,0.105-0.903,0.105-2.056v-8.392h-12.709v8.604c0,1.019,0.061,1.67,0.184,1.953
	c0.123,0.284,0.361,0.478,0.713,0.58c0.258,0.077,0.99,0.116,2.197,0.116v1.624h-9.457v-1.624h0.598
	c0.914,0,1.484-0.055,1.713-0.165c0.229-0.108,0.41-0.318,0.545-0.628s0.203-0.857,0.203-1.644V19.637
	c0-0.844-0.063-1.428-0.186-1.752s-0.316-0.564-0.58-0.721c-0.264-0.156-0.699-0.234-1.309-0.234h-0.984V15.306z"/>
</svg>
